Coordinates
version=1
nRows=29
nColumns=24
inDegrees=yes

Units are S.I. units (second, meters, Newtons, ...)
Angles are in degrees.

endheader
time	pelvis_tilt	pelvis_list	pelvis_rotation	pelvis_tx	pelvis_ty	pelvis_tz	hip_flexion_r	hip_adduction_r	hip_rotation_r	knee_angle_r	ankle_angle_r	subtalar_angle_r	mtp_angle_r	hip_flexion_l	hip_adduction_l	hip_rotation_l	knee_angle_l	ankle_angle_l	subtalar_angle_l	mtp_angle_l	lumbar_extension	lumbar_bending	lumbar_rotation
      2.96000000	     -9.49893329	      4.21635735	    354.20597248	     -0.56263542	      1.36985395	     -1.04111217	      2.89547020	     -0.63912020	      4.07608238	    -15.25076529	     11.76271834	     -1.35187077	      9.40993938	     25.88714939	      3.97232026	     -7.32304193	      4.29819221	     -8.36728239	      3.44333517	     30.76039954	     -5.04596885	     -0.01931140	     16.93976510
      2.96500000	     -9.47238264	      4.31569050	    354.21650751	     -0.55745979	      1.36934666	     -1.04150761	      2.63277509	     -0.80732496	      4.02454198	    -15.40952803	     11.89501141	     -1.21337260	      9.55099192	     25.99805955	      4.12292244	     -6.98430975	      3.55869073	     -8.53913448	      2.39003199	     30.56483922	     -5.05082921	     -0.17166709	     16.82874954
      2.97000000	     -9.43934901	      4.42549647	    354.18086782	     -0.55228166	      1.36888211	     -1.04180943	      2.38126038	     -0.97089196	      4.07890179	    -15.59334387	     11.97408030	     -1.20352866	      9.60911781	     26.08019215	      4.26719608	     -6.73745754	      2.85290422	     -8.75884856	      1.49796035	     30.41078224	     -5.06238354	     -0.34523988	     16.77059306
      2.97500000	     -9.43016434	      4.51955313	    354.19033904	     -0.54705954	      1.36841470	     -1.04217839	      2.15188928	     -1.11827017	      4.07993438	    -15.78508464	     12.03273098	     -1.19834348	      9.66808254	     26.17610653	      4.41863667	     -6.39686802	      2.16788144	     -9.04239598	      0.59460771	     30.30183307	     -5.04162615	     -0.50506073	     16.69414960
      2.98000000	     -9.42220980	      4.61678131	    354.19692621	     -0.54182506	      1.36797837	     -1.04254446	      1.94090279	     -1.26682366	      4.08500826	    -16.00856686	     12.06359912	     -1.19675700	      9.73704271	     26.24992430	      4.57801626	     -6.06528180	      1.53527312	     -9.40772120	     -0.27250002	     30.23883204	     -5.01878758	     -0.66595648	     16.60495575
      2.98500000	     -9.41626984	      4.70051727	    354.21806597	     -0.53659961	      1.36758452	     -1.04296119	      1.74785517	     -1.40357518	      4.06113369	    -16.26340979	     12.06957494	     -1.19414381	      9.84079866	     26.30986891	      4.73702292	     -5.71002536	      0.94323016	     -9.83065081	     -1.11898009	     30.26346531	     -5.00297668	     -0.80463962	     16.51351154
      2.99000000	     -9.42128910	      4.79769391	    354.23765600	     -0.53134665	      1.36722167	     -1.04335710	      1.59073147	     -1.54948122	      4.05365324	    -16.56155031	     12.02453672	     -1.20951781	      9.96857065	     26.35476788	      4.91020649	     -5.36956746	      0.41176278	    -10.30194754	     -1.89110080	     30.31391372	     -4.96768550	     -0.96356002	     16.40897777
      2.99500000	     -9.41232395	      4.89355294	    354.26840342	     -0.52609360	      1.36692547	     -1.04378510	      1.44011658	     -1.69769370	      4.02823166	    -16.89982233	     11.94003450	     -1.22079776	     10.15442351	     26.36219227	      5.09272616	     -5.00956451	     -0.07048369	    -10.80359010	     -2.62769412	     30.43223679	     -4.95363275	     -1.11995577	     16.29642695
      3.00000000	     -9.42529286	      4.98824976	    354.31132674	     -0.52083588	      1.36666147	     -1.04422601	      1.34223270	     -1.84178111	      3.99807784	    -17.29222867	     11.81277926	     -1.24449273	     10.42414571	     26.37648579	      5.27655952	     -4.63331987	     -0.51548084	    -11.32742214	     -3.30805679	     30.63622543	     -4.91324857	     -1.27859433	     16.18572922
      3.00500000	     -9.44870458	      5.08486563	    354.34353726	     -0.51558356	      1.36645798	     -1.04467939	      1.29599002	     -1.98884813	      3.96340771	    -17.75056089	     11.61025073	     -1.26704703	     10.73283212	     26.38877766	      5.45975303	     -4.30535213	     -0.93724707	    -11.85233012	     -3.94783645	     30.80498377	     -4.86684681	     -1.42680109	     16.06336435
      3.01000000	     -9.47178773	      5.17184164	    354.39992158	     -0.51033517	      1.36630731	     -1.04517085	      1.27948361	     -2.12755707	      3.90792883	    -18.26633931	     11.35847815	     -1.29670474	     11.15707890	     26.38941949	      5.64295768	     -3.93940581	     -1.34122317	    -12.36857108	     -4.53065133	     31.02227729	     -4.82396837	     -1.57151177	     15.94377934
      3.01500000	     -9.45350546	      5.27117119	    354.44600012	     -0.50508016	      1.36626881	     -1.04566643	      1.25621108	     -2.28811942	      3.84646231	    -18.84223885	     11.03888489	     -1.30727090	     11.63441565	     26.33503931	      5.84111411	     -3.62264356	     -1.73589292	    -12.84683585	     -5.09227688	     31.18491775	     -4.82738261	     -1.72672613	     15.82164256
      3.02000000	     -9.46399966	      5.36206562	    354.49381327	     -0.49983705	      1.36627442	     -1.04618669	      1.31855483	     -2.43964833	      3.76725006	    -19.51342827	     10.65832250	     -1.31820478	     12.20150349	     26.30696491	      6.02677929	     -3.29467820	     -2.13249645	    -13.27379766	     -5.62691549	     31.29343070	     -4.80231373	     -1.86409238	     15.69716759
      3.02500000	     -9.48061758	      5.44548207	    354.55429194	     -0.49461307	      1.36633249	     -1.04674727	      1.42961430	     -2.58755872	      3.68042888	    -20.25515585	     10.21291036	     -1.31349685	     12.85917521	     26.29795958	      6.20941533	     -2.95962191	     -2.56627433	    -13.64738841	     -6.15696532	     31.33426991	     -4.77714116	     -1.99280399	     15.57316796
      3.03000000	     -9.46551823	      5.52561948	    354.61657204	     -0.48939298	      1.36649530	     -1.04732868	      1.55278921	     -2.74035913	      3.57359997	    -21.07204289	      9.69198341	     -1.30707653	     13.63447611	     26.25300868	      6.39375975	     -2.62801415	     -3.01173918	    -13.94996766	     -6.66147037	     31.29350355	     -4.78698698	     -2.11720393	     15.46178016
      3.03500000	     -9.45566288	      5.60123919	    354.69015936	     -0.48416253	      1.36671339	     -1.04791617	      1.72555480	     -2.88908363	      3.46053151	    -21.95744331	      9.04253702	     -1.39202988	     14.63220618	     26.22249263	      6.57452238	     -2.31298128	     -3.49163850	    -14.14971529	     -7.06620882	     31.19269259	     -4.78627745	     -2.24439168	     15.36029443
      3.04000000	     -9.41037875	      5.68628224	    354.75258569	     -0.47896832	      1.36702228	     -1.04855166	      1.92608179	     -3.06735196	      3.30692081	    -22.95651340	      8.46150626	     -1.25123588	     15.40823506	     26.15878983	      6.77028777	     -1.98496235	     -3.98811538	    -14.34033957	     -7.58906795	     30.91759235	     -4.83517839	     -2.37020792	     15.25344880
      3.04500000	     -9.39218951	      5.75341983	    354.81665767	     -0.47375787	      1.36737208	     -1.04917852	      2.19806834	     -3.21912058	      3.19118129	    -24.00590289	      7.64172159	     -1.34091617	     16.61914120	     26.13584244	      6.94214809	     -1.66852928	     -4.53265059	    -14.33954955	     -7.96283912	     30.56828367	     -4.84747630	     -2.47144978	     15.14445271
      3.05000000	     -9.34875150	      5.83911675	    354.89680694	     -0.46852675	      1.36777153	     -1.04987348	      2.49450077	     -3.41405425	      2.99627096	    -25.14837682	      6.86965277	     -1.23372748	     17.62471160	     26.08233665	      7.15103417	     -1.32659154	     -5.07536086	    -14.36209005	     -8.42989491	     30.12143818	     -4.87636088	     -2.59231265	     15.04257358
      3.05500000	     -9.31343352	      5.90499283	    354.95567090	     -0.46339828	      1.36820021	     -1.05058724	      2.87062364	     -3.59014064	      2.83178241	    -26.38816607	      6.04304826	     -1.13753029	     18.77250344	     26.05782742	      7.33140761	     -1.01011153	     -5.66136481	    -14.29766521	     -8.84167040	     29.59223058	     -4.91987907	     -2.67407296	     14.95606978
      3.06000000	     -9.23676650	      5.98422070	    355.02342854	     -0.45819249	      1.36870803	     -1.05126805	      3.22810499	     -3.78500957	      2.66622322	    -27.65375139	      5.05344225	     -1.16648091	     20.07731246	     25.96682757	      7.53352265	     -0.70573234	     -6.22546283	    -14.11136890	     -9.12671364	     28.99329861	     -4.98476332	     -2.79164385	     14.85613600
      3.06500000	     -9.14398109	      6.05515001	    355.07239858	     -0.45308541	      1.36923993	     -1.05198820	      3.63340137	     -3.98312284	      2.49553338	    -29.00766631	      4.09112705	     -1.09900507	     21.31493619	     25.86611579	      7.72648957	     -0.43930834	     -6.79875904	    -13.91242558	     -9.41397734	     28.37410244	     -5.08484576	     -2.88250978	     14.78975160
      3.07000000	     -9.07367982	      6.13276096	    355.12577141	     -0.44795132	      1.36975705	     -1.05269082	      4.10127493	     -4.18461702	      2.34475880	    -30.40507623	      3.02167953	     -1.12557201	     22.58544042	     25.77635190	      7.92505393	     -0.18571971	     -7.35589087	    -13.63202984	     -9.61715073	     27.72641534	     -5.14443550	     -2.98391807	     14.69548275
      3.07500000	     -8.93735147	      6.21510749	    355.17588796	     -0.44282312	      1.37035610	     -1.05339061	      4.52452517	     -4.40134759	      2.19416324	    -31.81602826	      1.89545477	     -1.17987978	     23.94493038	     25.58808032	      8.13556810	      0.02618126	     -7.86537362	    -13.28761433	     -9.68609258	     27.05026689	     -5.27453106	     -3.09632172	     14.62615144
      3.08000000	     -8.84660578	      6.30170975	    355.22183519	     -0.43774228	      1.37088493	     -1.05410966	      5.04713071	     -4.62250746	      2.05495916	    -33.28807826	      0.80326127	     -1.17138322	     25.14077060	     25.44151463	      8.34667190	      0.22037408	     -8.35260090	    -12.96883373	     -9.81705774	     26.38108625	     -5.35265486	     -3.20523992	     14.54969424
      3.08500000	     -8.77285682	      6.40433995	    355.26529692	     -0.43267992	      1.37137278	     -1.05482007	      5.62458418	     -4.85844224	      1.93279972	    -34.79287950	     -0.26104683	     -1.18502110	     26.25052091	     25.29421568	      8.57099170	      0.38458307	     -8.79874933	    -12.63416034	     -9.92571282	     25.73042818	     -5.39941855	     -3.33511617	     14.48897382
      3.09000000	     -8.64721641	      6.49769139	    355.29888007	     -0.42765423	      1.37190896	     -1.05550731	      6.16180631	     -5.08383811	      1.83726550	    -36.28444146	     -1.32760803	     -1.21847235	     27.33868617	     25.06057803	      8.78472577	      0.48931488	     -9.18630199	    -12.26394821	     -9.91907083	     25.08924523	     -5.51305029	     -3.45000270	     14.39584264
      3.09500000	     -8.56394554	      6.58793779	    355.32801766	     -0.42266313	      1.37239387	     -1.05618682	      6.77201998	     -5.29603150	      1.77177366	    -37.78738270	     -2.32378809	     -1.23355750	     28.27327351	     24.85426719	      8.98599497	      0.55766260	     -9.53248336	    -11.89652835	     -9.88220960	     24.51336507	     -5.57204695	     -3.56189035	     14.32122256
      3.10000000	     -8.46041854	      6.67316655	    355.35574718	     -0.41770245	      1.37287972	     -1.05686153	      7.37066107	     -5.49952373	      1.72305660	    -39.27097311	     -3.23703310	     -1.23199390	     29.11632083	     24.59717934	      9.18251273	      0.59796284	     -9.82094687	    -11.52452766	     -9.80476524	     23.96541383	     -5.65436467	     -3.66535976	     14.23477510
